<svg width="380" height="50" viewBox="0 0 380 50" fill="none" xmlns="http://www.w3.org/2000/svg">
<path d="M7.20125 49C4.81192 49 3.10525 48.5307 2.08125 47.592C1.05725 46.6533 0.54525 45.3093 0.54525 43.56C0.54525 42.7067 0.60925 41.256 0.73725 39.208C0.86525 37.1173 1.03592 34.7493 1.24925 32.104C1.46258 29.4587 1.67592 26.664 1.88925 23.72C2.10258 20.776 2.31592 18.0027 2.52925 15.4C2.74258 12.7973 2.91325 10.5147 3.04125 8.552C3.16925 6.58933 3.23325 5.24533 3.23325 4.52C3.23325 3.88 3.57458 3.56 4.25725 3.56H7.77725C10.3799 3.56 12.1293 4.11466 13.0253 5.224C13.9213 6.33333 14.3693 7.976 14.3693 10.152C14.3693 10.3653 14.3266 11.048 14.2413 12.2C14.1986 13.352 14.1133 14.8027 13.9853 16.552C13.8573 18.3013 13.7079 20.264 13.5373 22.44C13.4093 24.5733 13.2599 26.7707 13.0893 29.032C12.9613 31.2933 12.8119 33.512 12.6413 35.688C12.5133 37.8213 12.3853 39.7627 12.2573 41.512C12.1293 43.2613 12.0226 44.7333 11.9373 45.928C11.8519 47.08 11.7879 47.784 11.7453 48.04C11.7026 48.3813 11.6173 48.6373 11.4893 48.808C11.3613 48.936 11.1053 49 10.7213 49H7.20125ZM41.8543 43.368C41.8543 42.4293 41.9183 41.2133 42.0463 39.72C42.2169 38.184 42.3663 36.584 42.4943 34.92C42.6649 33.2133 42.8143 31.5707 42.9423 29.992C43.1129 28.4133 43.1983 27.0907 43.1983 26.024C43.1983 24.9147 42.9209 23.9333 42.3663 23.08C41.8543 22.184 40.8303 21.736 39.2943 21.736C37.8009 21.736 36.5636 22.0987 35.5823 22.824C34.6009 23.5493 33.7689 24.872 33.0863 26.792C32.4463 28.712 31.9129 31.3573 31.4863 34.728C31.0596 38.0987 30.6543 42.4293 30.2703 47.72C30.2276 48.232 30.1209 48.5733 29.9503 48.744C29.7796 48.9147 29.4169 49 28.8623 49H26.5583C25.2356 49 24.1476 48.872 23.2943 48.616C22.4836 48.3173 21.8223 47.912 21.3103 47.4C20.8409 46.888 20.4996 46.2693 20.2863 45.544C20.1156 44.776 20.0303 43.9013 20.0303 42.92C20.0303 42.28 20.0516 41.384 20.0943 40.232C20.1796 39.0373 20.3076 37.416 20.4783 35.368C20.6489 33.2773 20.8409 30.6533 21.0543 27.496C21.3103 24.296 21.6089 20.3493 21.9503 15.656C21.9929 14.7173 22.0996 14.1627 22.2703 13.992C22.3983 13.864 22.7396 13.8 23.2943 13.8H25.7903C27.0703 13.8 28.1156 13.9493 28.9263 14.248C29.7796 14.5467 30.4623 14.952 30.9743 15.464C31.4863 15.9333 31.8489 16.5093 32.0623 17.192C32.2756 17.832 32.4036 18.4933 32.4463 19.176C33.7689 16.9147 35.2836 15.3573 36.9903 14.504C38.6969 13.608 40.8303 13.16 43.3903 13.16C45.1823 13.16 46.7396 13.352 48.0623 13.736C49.3849 14.12 50.4729 14.7813 51.3263 15.72C52.2223 16.616 52.8836 17.8107 53.3103 19.304C53.7369 20.7547 53.9503 22.568 53.9503 24.744C53.9503 25.4267 53.9076 26.408 53.8223 27.688C53.7369 28.968 53.6303 30.376 53.5023 31.912C53.3743 33.4053 53.2249 34.984 53.0543 36.648C52.9263 38.2693 52.7983 39.784 52.6702 41.192C52.5423 42.6 52.4356 43.8373 52.3503 44.904C52.2649 45.9707 52.2223 46.6747 52.2223 47.016C52.2223 47.9547 52.1156 48.5307 51.9023 48.744C51.6889 48.9147 51.2196 49 50.4943 49H48.4463C47.0809 49 45.9716 48.872 45.1183 48.616C44.2649 48.36 43.6036 47.9973 43.1343 47.528C42.6649 47.0587 42.3236 46.4827 42.1103 45.8C41.9396 45.0747 41.8543 44.264 41.8543 43.368ZM73.4153 22.44C73.2873 24.0613 73.1379 25.6613 72.9673 27.24C72.8393 28.8187 72.7113 30.312 72.5833 31.72C72.4553 33.128 72.3486 34.3867 72.2633 35.496C72.2206 36.6053 72.1993 37.4587 72.1993 38.056C72.1993 39.1653 72.3273 39.912 72.5833 40.296C72.8393 40.6373 73.2659 40.808 73.8633 40.808C74.3326 40.808 74.7379 40.7227 75.0793 40.552C75.4206 40.3813 75.7406 40.1893 76.0393 39.976C76.3379 39.7627 76.5939 39.5707 76.8073 39.4C77.0633 39.2293 77.3406 39.144 77.6393 39.144C77.9379 39.144 78.2153 39.3147 78.4713 39.656C78.7273 39.9973 78.8553 40.7867 78.8553 42.024C78.8553 44.3707 78.2153 46.2267 76.9353 47.592C75.6553 48.9573 73.4579 49.64 70.3433 49.64C67.2713 49.64 64.9886 48.936 63.4953 47.528C62.0446 46.0773 61.3193 43.88 61.3193 40.936C61.3193 40.296 61.3406 39.5493 61.3833 38.696C61.4686 37.8 61.5753 36.648 61.7033 35.24C61.8313 33.832 61.9806 32.104 62.1513 30.056C62.3646 28.008 62.5779 25.4693 62.7913 22.44H59.3993C59.0579 22.44 58.8446 22.376 58.7593 22.248C58.7166 22.0773 58.6953 21.8427 58.6953 21.544L58.8873 18.28C58.9299 17.7253 58.9939 17.192 59.0793 16.68C59.2073 16.1253 59.4206 15.6347 59.7193 15.208C60.0606 14.7813 60.5299 14.44 61.1273 14.184C61.7246 13.928 62.5139 13.8 63.4953 13.8C63.7939 13.032 64.1353 12.1147 64.5193 11.048C64.9033 9.98133 65.2873 8.95733 65.6713 7.976C66.0553 6.952 66.4179 6.09866 66.7593 5.416C67.1433 4.73333 67.4846 4.392 67.7833 4.392H69.6393C71.4313 4.392 72.6686 4.94667 73.3513 6.056C74.0339 7.16533 74.3753 8.488 74.3753 10.024C74.3753 10.8773 74.3113 12.136 74.1833 13.8H80.9033C81.5859 13.8 81.9273 14.0987 81.9273 14.696L81.6713 18.152C81.5859 19.432 81.2233 20.4773 80.5833 21.288C79.9859 22.056 78.7273 22.44 76.8073 22.44H73.4153ZM105.89 29.096C105.634 29.096 105.335 29.096 104.994 29.096C104.695 29.0533 104.396 29.0107 104.098 28.968C103.799 28.8827 103.543 28.7973 103.33 28.712C103.116 28.584 103.01 28.4347 103.01 28.264C103.01 27.7093 103.031 27.1973 103.074 26.728C103.116 26.2587 103.138 25.768 103.138 25.256C103.138 24.3173 103.01 23.5493 102.754 22.952C102.498 22.3547 101.986 22.056 101.218 22.056C100.023 22.056 99.0204 22.8453 98.2098 24.424C97.4418 25.96 96.9511 28.2853 96.7378 31.4C96.6524 32.7653 96.5244 34.3227 96.3538 36.072C96.2258 37.7787 96.0978 39.4427 95.9698 41.064C95.8418 42.6427 95.7351 44.0507 95.6498 45.288C95.5644 46.5253 95.5218 47.336 95.5218 47.72C95.5218 48.1467 95.3724 48.4667 95.0738 48.68C94.7751 48.8933 94.4551 49 94.1138 49H91.8098C90.4871 49 89.3991 48.872 88.5458 48.616C87.7351 48.3173 87.0738 47.912 86.5618 47.4C86.0924 46.888 85.7511 46.2693 85.5378 45.544C85.3671 44.776 85.2818 43.9013 85.2818 42.92C85.2818 42.28 85.3031 41.384 85.3458 40.232C85.4311 39.0373 85.5591 37.416 85.7298 35.368C85.9004 33.2773 86.0924 30.6533 86.3058 27.496C86.5618 24.296 86.8604 20.3493 87.2018 15.656C87.2871 14.4187 87.7351 13.8 88.5458 13.8H91.0417C92.2364 13.8 93.2391 13.928 94.0498 14.184C94.8604 14.44 95.5218 14.8027 96.0338 15.272C96.5458 15.6987 96.9084 16.2107 97.1218 16.808C97.3778 17.4053 97.5484 18.024 97.6338 18.664C98.1458 17.6827 98.7431 16.8507 99.4258 16.168C100.151 15.4427 100.898 14.8667 101.666 14.44C102.434 13.9707 103.223 13.6507 104.034 13.48C104.844 13.2667 105.591 13.16 106.274 13.16C107.084 13.16 107.895 13.3093 108.706 13.608C109.559 13.9067 110.327 14.3547 111.01 14.952C111.692 15.5493 112.226 16.3173 112.61 17.256C113.036 18.1947 113.25 19.304 113.25 20.584C113.25 21.736 113.079 22.824 112.738 23.848C112.396 24.872 111.906 25.7893 111.266 26.6C110.626 27.368 109.836 27.9867 108.898 28.456C108.002 28.8827 106.999 29.096 105.89 29.096ZM130.179 49.64C127.235 49.64 124.781 49.2347 122.819 48.424C120.899 47.5707 119.363 46.4187 118.211 44.968C117.059 43.5173 116.248 41.832 115.779 39.912C115.309 37.9493 115.075 35.8587 115.075 33.64C115.075 31.08 115.373 28.584 115.971 26.152C116.611 23.6773 117.677 21.48 119.171 19.56C120.664 17.64 122.627 16.104 125.059 14.952C127.533 13.7573 130.605 13.16 134.275 13.16C139.651 13.16 143.491 14.4827 145.795 17.128C148.141 19.7307 149.315 23.4 149.315 28.136C149.315 29.4587 149.208 30.9307 148.995 32.552C148.824 34.1307 148.461 35.7093 147.907 37.288C147.395 38.8667 146.669 40.4027 145.731 41.896C144.835 43.3893 143.683 44.712 142.275 45.864C140.867 47.016 139.16 47.9333 137.155 48.616C135.192 49.2987 132.867 49.64 130.179 49.64ZM133.187 21.672C131.565 21.672 130.264 22.0987 129.283 22.952C128.344 23.7627 127.619 24.7653 127.107 25.96C126.637 27.112 126.317 28.3493 126.147 29.672C126.019 30.952 125.955 32.04 125.955 32.936C125.955 35.752 126.403 37.8213 127.299 39.144C128.195 40.4667 129.475 41.128 131.139 41.128C132.632 41.128 133.848 40.6587 134.787 39.72C135.768 38.7813 136.515 37.6507 137.027 36.328C137.581 35.0053 137.944 33.6187 138.115 32.168C138.328 30.7173 138.435 29.5013 138.435 28.52C138.435 26.3867 138.029 24.7227 137.219 23.528C136.451 22.2907 135.107 21.672 133.187 21.672ZM165.805 49.64C164.141 49.64 162.541 49.3413 161.005 48.744C159.511 48.1467 158.189 47.208 157.037 45.928C155.927 44.648 155.031 43.0267 154.349 41.064C153.709 39.1013 153.389 36.7333 153.389 33.96C153.389 32.7227 153.474 31.3573 153.645 29.864C153.815 28.328 154.114 26.792 154.541 25.256C154.967 23.72 155.565 22.2267 156.333 20.776C157.101 19.3253 158.061 18.0453 159.213 16.936C160.407 15.784 161.815 14.8667 163.437 14.184C165.101 13.5013 167.042 13.16 169.261 13.16C171.394 13.16 173.101 13.544 174.381 14.312C175.703 15.0373 176.535 16.3173 176.877 18.152C176.962 16.488 177.047 15.0373 177.133 13.8C177.218 12.5627 177.282 11.4107 177.325 10.344C177.41 9.27733 177.495 8.21067 177.581 7.144C177.666 6.07733 177.751 4.86133 177.837 3.496C177.879 2.55733 177.986 2.00266 178.157 1.832C178.242 1.74666 178.349 1.704 178.477 1.704C178.605 1.66133 178.839 1.64 179.181 1.64H181.677C182.957 1.64 184.023 1.78933 184.877 2.088C185.73 2.38667 186.413 2.792 186.925 3.304C187.437 3.816 187.799 4.41333 188.013 5.096C188.226 5.736 188.333 6.41867 188.333 7.144C188.333 7.144 188.29 7.67733 188.205 8.744C188.119 9.81067 188.013 11.24 187.885 13.032C187.757 14.7813 187.607 16.7867 187.437 19.048C187.266 21.3093 187.095 23.656 186.925 26.088C186.754 28.4773 186.583 30.8667 186.413 33.256C186.242 35.6027 186.071 37.7787 185.901 39.784C185.73 41.7467 185.581 43.4533 185.453 44.904C185.367 46.312 185.303 47.2507 185.261 47.72C185.175 48.232 185.069 48.5733 184.941 48.744C184.813 48.9147 184.45 49 183.853 49H181.549C180.653 49 179.799 48.936 178.989 48.808C178.221 48.6373 177.538 48.3813 176.941 48.04C176.386 47.656 175.938 47.1653 175.597 46.568C175.298 45.928 175.149 45.1173 175.149 44.136C174.381 45.7573 173.207 47.08 171.629 48.104C170.093 49.128 168.151 49.64 165.805 49.64ZM171.373 21.672C169.197 21.672 167.575 22.632 166.509 24.552C165.485 26.4293 164.973 28.968 164.973 32.168C164.973 33.2773 165.037 34.3653 165.165 35.432C165.335 36.4987 165.613 37.4587 165.997 38.312C166.381 39.1653 166.893 39.848 167.533 40.36C168.215 40.872 169.069 41.128 170.093 41.128C171.927 41.128 173.463 40.232 174.701 38.44C175.938 36.648 176.557 33.832 176.557 29.992C176.557 28.9253 176.493 27.9013 176.365 26.92C176.237 25.896 175.981 25 175.597 24.232C175.213 23.464 174.679 22.8453 173.997 22.376C173.314 21.9067 172.439 21.672 171.373 21.672ZM205.254 19.24C205.254 20.136 205.169 21.3947 204.998 23.016C204.87 24.6373 204.721 26.3227 204.55 28.072C204.422 29.8213 204.273 31.464 204.102 33C203.974 34.536 203.91 35.6453 203.91 36.328C203.91 37.8213 204.273 38.9947 204.998 39.848C205.766 40.6587 206.812 41.064 208.134 41.064C209.286 41.064 210.246 40.616 211.014 39.72C211.825 38.7813 212.465 37.5867 212.934 36.136C213.446 34.6427 213.852 32.9573 214.15 31.08C214.449 29.2027 214.662 27.304 214.79 25.384C214.961 23.464 215.089 21.608 215.174 19.816C215.302 17.9813 215.43 16.4027 215.558 15.08C215.601 14.7387 215.729 14.44 215.942 14.184C216.156 13.928 216.497 13.8 216.966 13.8H219.27C220.593 13.8 221.66 13.9493 222.47 14.248C223.324 14.504 223.985 14.888 224.454 15.4C224.966 15.912 225.308 16.552 225.478 17.32C225.692 18.0453 225.798 18.8987 225.798 19.88C225.798 20.52 225.756 21.4373 225.67 22.632C225.628 23.784 225.521 25.4053 225.35 27.496C225.18 29.544 224.966 32.168 224.71 35.368C224.497 38.5253 224.22 42.4507 223.878 47.144C223.793 48.04 223.686 48.5733 223.558 48.744C223.473 48.9147 223.132 49 222.534 49H220.038C218.758 49 217.692 48.8507 216.838 48.552C216.028 48.2533 215.366 47.8693 214.854 47.4C214.342 46.9307 213.98 46.376 213.766 45.736C213.553 45.096 213.425 44.4347 213.382 43.752C212.742 44.8613 212.017 45.8 211.206 46.568C210.438 47.336 209.628 47.9547 208.774 48.424C207.921 48.8507 207.046 49.1493 206.15 49.32C205.254 49.5333 204.38 49.64 203.526 49.64C201.905 49.64 200.454 49.384 199.174 48.872C197.894 48.3173 196.806 47.592 195.91 46.696C195.057 45.8 194.396 44.7333 193.926 43.496C193.457 42.2587 193.222 40.936 193.222 39.528C193.222 38.9733 193.244 38.0773 193.286 36.84C193.372 35.56 193.457 34.1307 193.542 32.552C193.67 30.9733 193.798 29.3093 193.926 27.56C194.054 25.768 194.161 24.0827 194.246 22.504C194.374 20.9253 194.481 19.5387 194.566 18.344C194.694 17.1493 194.78 16.296 194.822 15.784C194.908 15.016 195.078 14.504 195.334 14.248C195.59 13.9493 196.017 13.8 196.614 13.8H198.662C199.985 13.8 201.073 13.928 201.926 14.184C202.78 14.44 203.441 14.8027 203.91 15.272C204.422 15.7413 204.764 16.3173 204.934 17C205.148 17.64 205.254 18.3867 205.254 19.24ZM247.533 41.128C248.771 41.128 249.837 40.9573 250.733 40.616C251.672 40.2747 252.483 39.8907 253.165 39.464C253.848 39.0373 254.424 38.6533 254.893 38.312C255.363 37.9707 255.789 37.8 256.173 37.8C257.155 37.8 257.645 38.44 257.645 39.72C257.645 40.0187 257.581 40.4453 257.453 41C257.325 41.512 257.155 42.0667 256.941 42.664C256.728 43.2187 256.493 43.752 256.237 44.264C256.024 44.776 255.811 45.16 255.597 45.416C255.384 45.6293 255 45.9707 254.445 46.44C253.933 46.9093 253.229 47.3787 252.333 47.848C251.437 48.3173 250.392 48.7227 249.197 49.064C248.003 49.448 246.68 49.64 245.229 49.64C243.608 49.64 241.923 49.4053 240.173 48.936C238.467 48.424 236.909 47.5707 235.501 46.376C234.093 45.1387 232.92 43.496 231.981 41.448C231.085 39.3573 230.637 36.7547 230.637 33.64C230.637 32.5307 230.701 31.272 230.829 29.864C231 28.4133 231.32 26.9413 231.789 25.448C232.259 23.912 232.877 22.4187 233.645 20.968C234.456 19.4747 235.523 18.152 236.845 17C238.168 15.848 239.747 14.9307 241.581 14.248C243.459 13.5227 245.677 13.16 248.237 13.16C250.328 13.16 252.12 13.416 253.613 13.928C255.149 14.3973 256.408 15.0587 257.389 15.912C258.371 16.7227 259.096 17.6827 259.565 18.792C260.077 19.9013 260.333 21.096 260.333 22.376C260.333 24.68 259.608 26.3867 258.157 27.496C256.707 28.5627 254.659 29.096 252.013 29.096C251.373 29.096 250.925 29.0533 250.669 28.968C250.456 28.84 250.349 28.584 250.349 28.2C250.349 27.176 250.328 26.2587 250.285 25.448C250.243 24.6373 250.115 23.9547 249.901 23.4C249.731 22.8453 249.453 22.4187 249.069 22.12C248.685 21.8213 248.131 21.672 247.405 21.672C246.083 21.672 245.016 22.0987 244.205 22.952C243.437 23.8053 242.84 24.8507 242.413 26.088C242.029 27.2827 241.773 28.52 241.645 29.8C241.56 31.08 241.517 32.1467 241.517 33C241.517 36.0293 241.987 38.1413 242.925 39.336C243.907 40.5307 245.443 41.128 247.533 41.128ZM277.665 22.44C277.537 24.0613 277.388 25.6613 277.217 27.24C277.089 28.8187 276.961 30.312 276.833 31.72C276.705 33.128 276.599 34.3867 276.513 35.496C276.471 36.6053 276.449 37.4587 276.449 38.056C276.449 39.1653 276.577 39.912 276.833 40.296C277.089 40.6373 277.516 40.808 278.113 40.808C278.583 40.808 278.988 40.7227 279.329 40.552C279.671 40.3813 279.991 40.1893 280.289 39.976C280.588 39.7627 280.844 39.5707 281.057 39.4C281.313 39.2293 281.591 39.144 281.889 39.144C282.188 39.144 282.465 39.3147 282.721 39.656C282.977 39.9973 283.105 40.7867 283.105 42.024C283.105 44.3707 282.465 46.2267 281.185 47.592C279.905 48.9573 277.708 49.64 274.593 49.64C271.521 49.64 269.239 48.936 267.745 47.528C266.295 46.0773 265.569 43.88 265.569 40.936C265.569 40.296 265.591 39.5493 265.633 38.696C265.719 37.8 265.825 36.648 265.953 35.24C266.081 33.832 266.231 32.104 266.401 30.056C266.615 28.008 266.828 25.4693 267.041 22.44H263.649C263.308 22.44 263.095 22.376 263.009 22.248C262.967 22.0773 262.945 21.8427 262.945 21.544L263.137 18.28C263.18 17.7253 263.244 17.192 263.329 16.68C263.457 16.1253 263.671 15.6347 263.969 15.208C264.311 14.7813 264.78 14.44 265.377 14.184C265.975 13.928 266.764 13.8 267.745 13.8C268.044 13.032 268.385 12.1147 268.769 11.048C269.153 9.98133 269.537 8.95733 269.921 7.976C270.305 6.952 270.668 6.09866 271.009 5.416C271.393 4.73333 271.735 4.392 272.033 4.392H273.889C275.681 4.392 276.919 4.94667 277.601 6.056C278.284 7.16533 278.625 8.488 278.625 10.024C278.625 10.8773 278.561 12.136 278.433 13.8H285.153C285.836 13.8 286.177 14.0987 286.177 14.696L285.921 18.152C285.836 19.432 285.473 20.4773 284.833 21.288C284.236 22.056 282.977 22.44 281.057 22.44H277.665ZM296.06 49C294.737 49 293.649 48.872 292.796 48.616C291.985 48.3173 291.324 47.912 290.812 47.4C290.342 46.888 290.001 46.2693 289.788 45.544C289.617 44.776 289.532 43.9013 289.532 42.92C289.532 42.28 289.553 41.384 289.596 40.232C289.681 39.0373 289.809 37.416 289.98 35.368C290.15 33.2773 290.342 30.6533 290.556 27.496C290.812 24.296 291.11 20.3493 291.452 15.656C291.494 14.7173 291.601 14.1627 291.772 13.992C291.9 13.864 292.241 13.8 292.796 13.8H295.292C296.614 13.8 297.681 13.928 298.492 14.184C299.345 14.44 300.006 14.824 300.476 15.336C300.988 15.848 301.329 16.4667 301.5 17.192C301.713 17.9173 301.82 18.728 301.82 19.624C301.82 20.264 301.777 21.224 301.692 22.504C301.606 23.784 301.478 25.5333 301.308 27.752C301.18 29.928 300.988 32.6587 300.732 35.944C300.476 39.1867 300.156 43.112 299.772 47.72C299.729 48.232 299.622 48.5733 299.452 48.744C299.281 48.9147 298.918 49 298.364 49H296.06ZM291.516 6.248C291.516 4.54133 292.134 3.19733 293.372 2.216C294.609 1.23467 296.273 0.743999 298.364 0.743999C300.198 0.743999 301.521 1.128 302.332 1.896C303.185 2.62133 303.612 3.60266 303.612 4.84C303.612 6.41866 303.014 7.74133 301.82 8.808C300.668 9.832 298.961 10.344 296.7 10.344C293.244 10.344 291.516 8.97866 291.516 6.248ZM321.804 49.64C318.86 49.64 316.406 49.2347 314.444 48.424C312.524 47.5707 310.988 46.4187 309.836 44.968C308.684 43.5173 307.873 41.832 307.404 39.912C306.934 37.9493 306.7 35.8587 306.7 33.64C306.7 31.08 306.998 28.584 307.596 26.152C308.236 23.6773 309.302 21.48 310.796 19.56C312.289 17.64 314.252 16.104 316.684 14.952C319.158 13.7573 322.23 13.16 325.9 13.16C331.276 13.16 335.116 14.4827 337.42 17.128C339.766 19.7307 340.94 23.4 340.94 28.136C340.94 29.4587 340.833 30.9307 340.62 32.552C340.449 34.1307 340.086 35.7093 339.532 37.288C339.02 38.8667 338.294 40.4027 337.356 41.896C336.46 43.3893 335.308 44.712 333.9 45.864C332.492 47.016 330.785 47.9333 328.78 48.616C326.817 49.2987 324.492 49.64 321.804 49.64ZM324.812 21.672C323.19 21.672 321.889 22.0987 320.908 22.952C319.969 23.7627 319.244 24.7653 318.732 25.96C318.262 27.112 317.942 28.3493 317.772 29.672C317.644 30.952 317.58 32.04 317.58 32.936C317.58 35.752 318.028 37.8213 318.924 39.144C319.82 40.4667 321.1 41.128 322.764 41.128C324.257 41.128 325.473 40.6587 326.412 39.72C327.393 38.7813 328.14 37.6507 328.652 36.328C329.206 35.0053 329.569 33.6187 329.74 32.168C329.953 30.7173 330.06 29.5013 330.06 28.52C330.06 26.3867 329.654 24.7227 328.844 23.528C328.076 22.2907 326.732 21.672 324.812 21.672ZM367.542 43.368C367.542 42.4293 367.606 41.2133 367.734 39.72C367.904 38.184 368.054 36.584 368.182 34.92C368.352 33.2133 368.502 31.5707 368.63 29.992C368.8 28.4133 368.886 27.0907 368.886 26.024C368.886 24.9147 368.608 23.9333 368.054 23.08C367.542 22.184 366.518 21.736 364.982 21.736C363.488 21.736 362.251 22.0987 361.27 22.824C360.288 23.5493 359.456 24.872 358.774 26.792C358.134 28.712 357.6 31.3573 357.174 34.728C356.747 38.0987 356.342 42.4293 355.958 47.72C355.915 48.232 355.808 48.5733 355.638 48.744C355.467 48.9147 355.104 49 354.55 49H352.246C350.923 49 349.835 48.872 348.982 48.616C348.171 48.3173 347.51 47.912 346.998 47.4C346.528 46.888 346.187 46.2693 345.974 45.544C345.803 44.776 345.718 43.9013 345.718 42.92C345.718 42.28 345.739 41.384 345.782 40.232C345.867 39.0373 345.995 37.416 346.166 35.368C346.336 33.2773 346.528 30.6533 346.742 27.496C346.998 24.296 347.296 20.3493 347.638 15.656C347.68 14.7173 347.787 14.1627 347.958 13.992C348.086 13.864 348.427 13.8 348.982 13.8H351.478C352.758 13.8 353.803 13.9493 354.614 14.248C355.467 14.5467 356.15 14.952 356.662 15.464C357.174 15.9333 357.536 16.5093 357.75 17.192C357.963 17.832 358.091 18.4933 358.134 19.176C359.456 16.9147 360.971 15.3573 362.678 14.504C364.384 13.608 366.518 13.16 369.078 13.16C370.87 13.16 372.427 13.352 373.75 13.736C375.072 14.12 376.16 14.7813 377.014 15.72C377.91 16.616 378.571 17.8107 378.998 19.304C379.424 20.7547 379.638 22.568 379.638 24.744C379.638 25.4267 379.595 26.408 379.51 27.688C379.424 28.968 379.318 30.376 379.19 31.912C379.062 33.4053 378.912 34.984 378.742 36.648C378.614 38.2693 378.486 39.784 378.358 41.192C378.23 42.6 378.123 43.8373 378.038 44.904C377.952 45.9707 377.91 46.6747 377.91 47.016C377.91 47.9547 377.803 48.5307 377.59 48.744C377.376 48.9147 376.907 49 376.182 49H374.134C372.768 49 371.659 48.872 370.806 48.616C369.952 48.36 369.291 47.9973 368.822 47.528C368.352 47.0587 368.011 46.4827 367.798 45.8C367.627 45.0747 367.542 44.264 367.542 43.368Z" fill="white"/>
</svg>
